<svg width="160" height="32" viewBox="0 0 160 32" fill="none" xmlns="http://www.w3.org/2000/svg">
<path d="M28.1825 12.8052C27.8813 9.31314 26.2698 6.05944 23.665 3.68858C21.0602 1.3151 17.6523 0 14.1176 0C10.583 0 7.17506 1.3151 4.57027 3.68596C1.96548 6.05682 0.351356 9.31052 0.0501937 12.8052C0.0158506 13.2008 0 13.599 0 14.0051C0 17.1671 1.08049 20.2348 3.06446 22.7104C5.04843 25.1861 7.81965 26.923 10.9237 27.6408L14.1176 32L17.3116 27.6408C20.4183 26.9256 23.1895 25.1861 25.1708 22.7104C27.1548 20.2348 28.2353 17.1645 28.2353 14.0051C28.2353 13.6016 28.2194 13.2008 28.1851 12.8052H28.1825ZM13.1085 21.1779C13.1085 21.2355 13.0926 21.2932 13.0636 21.3456C13.0345 21.3953 12.9922 21.4372 12.9394 21.4687C12.8892 21.4975 12.8311 21.5132 12.7703 21.5132C12.7122 21.5132 12.6541 21.4975 12.6013 21.4687L7.39169 18.4848C7.18827 18.3669 7.0192 18.1993 6.90032 17.9975C6.78144 17.7958 6.72068 17.5653 6.71803 17.3321V11.498C6.71803 11.4404 6.73388 11.3827 6.76294 11.3303C6.792 11.2806 6.83427 11.2386 6.88711 11.2072C6.9373 11.1784 6.99542 11.1627 7.05618 11.1627C7.1143 11.1627 7.17242 11.1784 7.22526 11.2072L12.4348 14.1911C12.6383 14.309 12.81 14.4766 12.9262 14.6783C13.0451 14.8801 13.1058 15.1106 13.1058 15.3464V21.1753L13.1085 21.1779ZM14.1176 12.6402C13.8825 12.6402 13.6501 12.5773 13.4466 12.4621L8.11817 9.41007C8.06798 9.38125 8.02571 9.33934 7.99665 9.28694C7.96759 9.23717 7.95174 9.17953 7.95174 9.11928C7.95174 9.05903 7.96759 9.00401 7.99665 8.95424C8.02571 8.90446 8.06798 8.86255 8.11817 8.83111L13.4466 5.77912C13.6501 5.66124 13.8825 5.60098 14.1176 5.60098C14.3528 5.60098 14.5852 5.66386 14.7887 5.77912L20.1171 8.83111C20.1673 8.85993 20.2096 8.90184 20.2386 8.95424C20.2677 9.00401 20.2835 9.06165 20.2835 9.11928C20.2835 9.17691 20.2677 9.23455 20.2386 9.28694C20.2096 9.33672 20.1673 9.37863 20.1171 9.41007L14.7887 12.4621C14.5852 12.5799 14.3528 12.6402 14.1176 12.6402ZM21.512 17.3321C21.512 17.5653 21.4512 17.7958 21.3323 18.0002C21.2135 18.2019 21.0444 18.3722 20.841 18.4874L15.6314 21.4713C15.5812 21.5001 15.5231 21.5158 15.4623 21.5158C15.4042 21.5158 15.3461 21.5001 15.2932 21.4713C15.243 21.4425 15.2008 21.4006 15.1691 21.3482C15.14 21.2984 15.1242 21.2408 15.1242 21.1805V15.3464C15.1242 15.1132 15.1876 14.8827 15.3038 14.6783C15.4227 14.4766 15.5918 14.3063 15.7952 14.1911L21.0048 11.2072C21.0549 11.1784 21.1131 11.1627 21.1738 11.1627C21.2319 11.1627 21.2901 11.1784 21.3429 11.2072C21.3931 11.236 21.4354 11.2779 21.4671 11.3303C21.4961 11.3801 21.512 11.4377 21.512 11.498V17.3321Z" fill="#FF6B2B"/>
<path d="M13.0636 21.3456C13.0926 21.2932 13.1085 21.2355 13.1085 21.1779L13.1058 15.3464C13.1058 15.1106 13.0451 14.8801 12.9262 14.6783C12.81 14.4766 12.6383 14.309 12.4348 14.1911L7.22526 11.2072C7.17242 11.1784 7.1143 11.1627 7.05618 11.1627C6.99542 11.1627 6.9373 11.1784 6.88711 11.2072C6.83427 11.2386 6.792 11.2806 6.76294 11.3303C6.73388 11.3827 6.71803 11.4404 6.71803 11.498V17.3321C6.72068 17.5653 6.78144 17.7958 6.90032 17.9975C7.0192 18.1993 7.18827 18.3669 7.39169 18.4848L12.6013 21.4687C12.6541 21.4975 12.7122 21.5132 12.7703 21.5132C12.8311 21.5132 12.8892 21.4975 12.9394 21.4687C12.9922 21.4372 13.0345 21.3953 13.0636 21.3456Z" fill="white"/>
<path d="M13.4466 12.4621C13.6501 12.5773 13.8825 12.6402 14.1176 12.6402C14.3528 12.6402 14.5852 12.5799 14.7887 12.4621L20.1171 9.41007C20.1673 9.37863 20.2096 9.33672 20.2386 9.28694C20.2677 9.23455 20.2835 9.17691 20.2835 9.11928C20.2835 9.06165 20.2677 9.00401 20.2386 8.95424C20.2096 8.90184 20.1673 8.85993 20.1171 8.83111L14.7887 5.77912C14.5852 5.66386 14.3528 5.60098 14.1176 5.60098C13.8825 5.60098 13.6501 5.66124 13.4466 5.77912L8.11817 8.83111C8.06798 8.86255 8.02571 8.90446 7.99665 8.95424C7.96759 9.00401 7.95174 9.05903 7.95174 9.11928C7.95174 9.17953 7.96759 9.23717 7.99665 9.28694C8.02571 9.33934 8.06798 9.38125 8.11817 9.41007L13.4466 12.4621Z" fill="white"/>
<path d="M21.3323 18.0002C21.4512 17.7958 21.512 17.5653 21.512 17.3321V11.498C21.512 11.4377 21.4961 11.3801 21.4671 11.3303C21.4354 11.2779 21.3931 11.236 21.3429 11.2072C21.2901 11.1784 21.2319 11.1627 21.1738 11.1627C21.1131 11.1627 21.0549 11.1784 21.0048 11.2072L15.7952 14.1911C15.5918 14.3063 15.4227 14.4766 15.3038 14.6783C15.1876 14.8827 15.1242 15.1132 15.1242 15.3464V21.1805C15.1242 21.2408 15.14 21.2984 15.1691 21.3482C15.2008 21.4006 15.243 21.4425 15.2932 21.4713C15.3461 21.5001 15.4042 21.5158 15.4623 21.5158C15.5231 21.5158 15.5812 21.5001 15.6314 21.4713L20.841 18.4874C21.0444 18.3722 21.2135 18.2019 21.3323 18.0002Z" fill="white"/>
<path d="M47.7228 10.3863C47.293 9.89506 46.7343 9.4732 46.0493 9.12343C45.1548 8.66686 44.0911 8.43724 42.8904 8.43724C41.5849 8.43724 40.3868 8.69356 39.3312 9.20353C38.2808 9.71083 37.3783 10.3783 36.645 11.1927C35.917 12.0044 35.3449 12.9175 34.9473 13.9054C34.5497 14.896 34.3456 15.9026 34.3456 16.8958C34.3456 17.8891 34.5363 18.9624 34.9124 19.961C35.2884 20.9622 35.8391 21.8727 36.5483 22.663C37.2574 23.456 38.1385 24.1102 39.17 24.6041C40.2042 25.1008 41.3995 25.3544 42.7292 25.3544C43.8413 25.3544 44.8781 25.1355 45.8129 24.7029C46.5677 24.3558 47.2071 23.9019 47.7228 23.3572V24.9352H51.564V8.74162H47.7228V10.3863ZM47.481 18.7915C47.2339 19.3736 46.8901 19.8862 46.4603 20.3134C46.0278 20.7433 45.5201 21.0904 44.9533 21.3467C44.3919 21.6004 43.7849 21.7285 43.1509 21.7285C42.517 21.7285 41.8696 21.6004 41.2974 21.3441C40.7199 21.0877 40.2095 20.7406 39.7771 20.3108C39.3473 19.8836 39.0034 19.3709 38.7563 18.7889C38.5092 18.2068 38.3856 17.5713 38.3856 16.8932C38.3856 16.215 38.5092 15.5795 38.7563 14.9974C39.0034 14.4154 39.3473 13.9027 39.7771 13.4729C40.2095 13.043 40.7199 12.6959 41.2974 12.4396C41.8696 12.1859 42.4928 12.0551 43.1509 12.0551C43.809 12.0551 44.3919 12.1833 44.9533 12.4369C45.5201 12.6932 46.0278 13.0403 46.4603 13.4702C46.8901 13.8974 47.2339 14.41 47.481 14.9948C47.7282 15.5768 47.8517 16.2123 47.8517 16.8905C47.8517 17.5687 47.7282 18.2041 47.481 18.7862V18.7915Z" fill="black"/>
<path d="M137.817 3.34018C137.229 3.34018 136.719 3.55111 136.302 3.96496C135.886 4.37881 135.674 4.88612 135.674 5.47352C135.674 6.06092 135.886 6.56555 136.302 6.9794C136.719 7.39325 137.229 7.60418 137.82 7.60418C138.411 7.60418 138.919 7.39325 139.335 6.9794C139.752 6.56555 139.964 6.05825 139.964 5.47085C139.964 4.88345 139.752 4.37881 139.335 3.96229C138.919 3.54844 138.408 3.33751 137.82 3.33751L137.817 3.34018Z" fill="black"/>
<path d="M139.864 8.79234H135.964V24.9299H139.864V8.79234Z" fill="black"/>
<path d="M159.433 13.7639C159.054 12.76 158.504 11.8468 157.792 11.0512C157.08 10.2555 156.194 9.59868 155.162 9.10206C154.125 8.60276 152.922 8.34911 151.59 8.34911C150.475 8.34911 149.451 8.55737 148.543 8.96856C147.818 9.29697 147.176 9.75087 146.625 10.3142V8.7683H142.725V30.2966H146.625V23.4266C147.05 23.8966 147.595 24.3024 148.256 24.6362C149.156 25.0927 150.222 25.325 151.426 25.325C152.737 25.325 153.937 25.066 154.998 24.5561C156.054 24.0488 156.959 23.3759 157.693 22.5589C158.423 21.7445 158.998 20.8287 159.396 19.8355C159.796 18.8396 160 17.8303 160 16.8344C160 15.8385 159.809 14.7625 159.431 13.7585L159.433 13.7639ZM155.522 18.7194C155.264 19.3015 154.918 19.8115 154.491 20.236C154.061 20.6632 153.553 21.0076 152.978 21.2639C152.409 21.5176 151.802 21.6457 151.171 21.6457C150.539 21.6457 149.938 21.5176 149.379 21.2666C148.815 21.013 148.312 20.6659 147.883 20.2387C147.456 19.8141 147.112 19.3041 146.867 18.7248C146.623 18.148 146.499 17.5126 146.499 16.8424C146.499 16.1722 146.623 15.5368 146.867 14.96C147.112 14.3807 147.453 13.8707 147.883 13.4462C148.312 13.019 148.817 12.6719 149.379 12.4182C149.938 12.1672 150.539 12.0391 151.171 12.0391C151.802 12.0391 152.409 12.1672 152.978 12.4209C153.553 12.6772 154.061 13.0216 154.491 13.4488C154.92 13.876 155.267 14.386 155.522 14.9654C155.777 15.5421 155.906 16.1749 155.906 16.8451C155.906 17.5152 155.777 18.148 155.522 18.7248V18.7194Z" fill="black"/>
<path d="M59.9208 6.0716C59.9208 5.06501 60.6971 3.91691 61.9945 3.91691C62.478 3.91691 62.8326 3.97832 63.2355 4.13585L65.1884 0.849069L64.9762 0.774309C64.259 0.520658 63.1657 0.349778 62.2551 0.349778C60.2753 0.349778 58.6475 0.990579 57.5489 2.20276C56.5926 3.25742 56.0634 4.72325 56.0634 6.32792V8.787H53.8339V12.5918H56.1144V24.9779H59.9235V12.5944H63.4209V8.78967H59.9235V6.0716H59.9208Z" fill="black"/>
<path d="M103.254 8.8671C102.714 8.51733 102.046 8.34111 101.261 8.34111C100.477 8.34111 99.8402 8.55204 99.2573 8.97123C98.9698 9.17682 98.7173 9.41712 98.4971 9.69213V8.78433H94.6693V24.9379H98.4917V14.3112C98.4917 13.6704 98.7711 13.1738 99.1847 12.792C99.6038 12.4049 100.082 12.2153 100.646 12.2153C100.788 12.2153 100.971 12.2527 101.191 12.3301C101.277 12.3595 101.358 12.3942 101.433 12.4289L103.415 9.01662L103.429 8.97657L103.254 8.86443V8.8671Z" fill="black"/>
<path d="M116.997 19.2694C116.68 17.8944 115.807 16.8584 114.407 16.1856C113.405 15.705 112.288 15.486 111.208 15.2724C110.389 15.1096 109.519 14.9574 108.911 14.7144C108.468 14.5355 108.21 14.3379 108.028 14.0309C107.716 13.5076 108.012 13.011 108.047 12.9549C108.431 12.3435 109.301 11.9643 110.161 11.9643C111.103 11.9643 111.939 12.2473 112.643 12.8054C113.078 13.1525 113.346 13.5209 113.413 13.6331L113.537 13.844L116.962 11.975L116.838 11.7721C116.634 11.433 116.175 10.7681 115.396 10.1087C114.41 9.27561 112.704 8.2797 110.158 8.2797C108.997 8.2797 107.875 8.5467 106.916 9.054C105.992 9.53994 105.231 10.2341 104.71 11.0645C103.759 12.5811 103.716 14.3673 104.597 15.8465C105.129 16.741 105.914 17.3978 106.991 17.8543C107.918 18.2468 108.944 18.4391 109.852 18.61C110.037 18.6447 110.212 18.6767 110.386 18.7114C111.404 18.9117 112.25 19.1306 112.712 19.3629C113.016 19.5151 113.199 19.734 113.252 20.009C113.328 20.3855 113.153 20.7646 113.043 20.8848C112.433 21.547 111.506 21.8006 110.405 21.6618C109.642 21.5657 108.834 21.1865 108.135 20.6285C107.504 20.1238 107.112 19.4937 107.112 19.4937L103.902 21.1518L103.681 21.2666L103.805 21.4722C103.937 21.6938 104.439 22.4788 105.347 23.2611C107.413 25.0447 109.607 25.2609 110.547 25.2609C110.58 25.2609 110.612 25.2609 110.641 25.2609C110.655 25.2609 110.663 25.2609 110.671 25.2609C111.761 25.2609 112.771 25.0901 113.674 24.751C114.587 24.4092 115.35 23.9099 115.936 23.2718C116.959 22.1584 117.335 20.7353 116.997 19.2641V19.2694Z" fill="black"/>
<path d="M83.9433 8.28237C79.2076 8.28237 75.369 12.0978 75.369 16.805C75.369 21.5123 79.2076 25.3277 83.9433 25.3277C86.9465 25.3277 89.5897 23.7924 91.1208 21.4695L87.9081 19.6246C87.0244 20.8501 85.5792 21.6484 83.9433 21.6484C81.8078 21.6484 79.9946 20.284 79.3338 18.3857H88.5528V18.391H92.3699C92.4666 17.8757 92.5203 17.347 92.5203 16.8024C92.5203 12.0951 88.6818 8.2797 83.946 8.2797L83.9433 8.28237ZM79.2533 15.6115C79.3338 15.2938 79.5487 14.7331 79.589 14.6263C79.5944 14.613 79.5998 14.6023 79.6051 14.5916C80.4137 13.0296 82.0523 11.9616 83.9433 11.9616H83.9702C86.2454 11.9616 88.1553 13.5156 88.6871 15.6115H79.2533Z" fill="black"/>
<path d="M126.53 8.36247C125.026 8.36247 124.008 8.6802 122.928 9.45183V3.40159H119.124V24.9112H122.928V15.0588L122.933 14.912C122.928 13.1364 124.792 12.0471 126.517 12.0818C127.634 12.1058 129.257 13.2112 129.38 15.0028V24.9085H133.264V15.4006C133.264 11.3422 130.613 8.36247 126.53 8.36247Z" fill="black"/>
<path d="M71.5117 24.9112V12.6425H74.359V8.82706H71.5117V5.58568H67.7134V8.82706H65.3522V12.6425H67.7134V24.9299L71.5117 24.9112Z" fill="black"/>
</svg>
